/* XPM */
static char *_3f708c630ac4e33e99671d0b1327655iPJtIhTiULQB8pDK[] = {
/* columns rows colors chars-per-pixel */
"32 32 7 1 ",
"  c gray4",
". c #191919",
"X c gray15",
"o c gray20",
"O c #434343",
"+ c gray32",
"@ c #6D6D6D",
/* pixels */
"OOOOOOOOOOOOOOOO.@OOOOOOOOOOOOOO",
"OOOOOOOOOOOOOOOO.@OOOOOOOOOOOOOO",
"OOOOOOOOOOOOOOOO @OOOOOOOOOOOOOO",
"OOOOOOOOOOOOOOOo.oOOOOOOOOOOOOOO",
".    . .....................    ",
"@@@@@@@@@@@@@@@@@@@@@@@o.o@@@@@@",
"++++++++++++++++++++++++.@++++++",
"++++++++++++++++++++++++X@++++++",
"++++++++++++++++++++++++.@++++++",
"+++++++++++++++++++++++oXo++++++",
"........................X.......",
"@@@@@o.o@@@@@@@@@@@@@@@@@@@@@@@@",
"OOOOOO.@OOOOOOOOOOOOOOOOOOOOOOOO",
"OOOOOO @OOOOOOOOOOOOOOOOOOOOOOOO",
"OOOOOO.@OOOOOOOOOOOOOOOOOOOOOOOO",
"OOOOOO.@OOOOOOOOOOOOOOOOOOOOOOOO",
"OOOOOo.oOOOOOOOOOOOOOOOOOOOOOOOO",
"................................",
"@@@@@@@@@@@@@@@@@@@@@@@o.o@@@@@@",
"++++++++++++++++++++++++.@++++++",
"++++++++++++++++++++++++.@++++++",
"++++++++++++++++++++++++.@++++++",
"+++++++++++++++++++++++o.o++++++",
"................................",
"@@@@@o.o@@@@@@@@@@@@@@@@@@@@@@@@",
"++++++.@++++++++++++++++++++++++",
"++++++.@++++++++++++++++++++++++",
"++++++.@++++++++++++++++++++++++",
"+++++o.o++++++++++++++++++++++++",
"................................",
"@@@@@@@@@@@@@@@o.o@@@@@@@@@@@@@@",
"OOOOOOOOOOOOOOOO.@OOOOOOOOOOOOOO"
};
