/* XPM */
static char *_5d37cc879c74102a1c646f15f114da5UcPUDjlmje6eJtuv[] = {
/* columns rows colors chars-per-pixel */
"32 29 14 1 ",
"  c black",
". c gray1",
"X c gray4",
"o c #131313",
"O c #151515",
"+ c #191919",
"@ c #252525",
"# c gray16",
"$ c gray20",
"% c #434343",
"& c #464646",
"* c #494949",
"= c gray32",
"- c #6D6D6D",
/* pixels */
"%##############################*",
"+#-----------+-----------------X",
"-#-==========+-===============--",
"=#-==========+-===============-=",
"=#-==========+-===============-=",
"=#-==========+-===============-=",
"=#***********+-***************-=",
"+#++++++++++++++++++++++++++++-+",
"-#O&&%%&%&%%$&%$$%$%&$#O%%%$#.--",
"%#O&$%%$%$&$%%%%&%&%%%#O&$%&# -*",
"%#O&&%&$%%%%$&$%%%&%%$#O%&%$# -&",
"%#O&$%%%$&$%%%&%&$$%%&#O%$%%# -%",
"%#O####################O##### -%",
"%#OOOOOO++OOOOOO+OOOOOOOOOOOO -%",
"+#  o@@@@@@@@@@@O@@@@@@@@@@o  -+",
"-#  o@@@@@@@@@@@O@@@@@@@@@@o  --",
"=#  o@@@@@@@@@@@O@@@@@@@@@@o  -=",
"=#  o@@@@@@@@@@@O@@@@@@@@@@o  -=",
"=#  ooOOooOoooOOooOoooOOoooO  -=",
"=#   XXooXXooXXoXooXoXoXXoX   -=",
"+#   XOOOOoOOO+O+OO+OOO+oOX   -+",
"-#   X+OO+XOO+OO+OOO+OOOXOX   --",
"=#   XO+OOoOOOOOO+O+O+O+oOX   -=",
"=#   XOOOOoOO+O+OOOOOOOOoOX   -=",
"=#   XXXXXXXXXXXXXXXXXXXXXX   -=",
"=#-----------------------------=",
"++++++++++++++++++++++++O+++++++",
"---------------$+$--------------",
"%%%%&%%%%%%%%%%%+-%%%%%%%%%%&%%%"
};
