/* XPM */
static char *result[] = {
/* columns rows colors chars-per-pixel */
"32 32 24 1 ",
"  c gray4",
". c #1A070F",
"X c #191919",
"o c gray15",
"O c #292F37",
"+ c gray20",
"@ c #53272E",
"# c #562C3A",
"$ c #733B41",
"% c #434343",
"& c gray32",
"* c #6D6D6D",
"= c #841F19",
"- c #C04101",
"; c #884949",
": c #9B534A",
"> c #846A58",
", c #BE675D",
"< c #B66E62",
"1 c #656E87",
"2 c #AF9582",
"3 c #E7B19E",
"4 c #AFB5CE",
"5 c #EFEFEF",
/* pixels */
"%%%%%%%%%%%%%%%%X*%%%%%%%%%%%%%%",
"%%%%%%%%%%%%%%%%X*%%%%%%%%%%%%%%",
"%%%%%%%%%%%%%%%% *%%%%%%%%%%%%%%",
"%%%%%%%%%%%%%%%+X+%%%%%%%%%%%%%%",
"X    X XXXXXXXXXXXXXXXXXXXXX    ",
"*************.......***+X+******",
"&&&&&&&&&&&&.=-----=.&&&X*&&&&&&",
"&&&&&&&&&&&.=-------=.&&o*&&&&&&",
"&&&&&&&&&&&.=-------=.&&X*&&&&&&",
"&&&&&&&&&&&.==-----==.&+o+&&&&&&",
"XXXXXXXXXXX.=========.XXoXXXXXXX",
"*****+X+**.3===---===3.*********",
"%%%%%%X*%%.3=========3..%%%%%%%%",
"%%%%%% *%%%.3=======3.4.%%%%%%%%",
"%%%%%%X*%%%.<3===....@.%%%%%%%%%",
"%%%%%%X*%%%%.<<33.;;@.%%%%%%%%%%",
"%%%%%+X+%%%.>2<3<..;;.%%%%%%%%%%",
"XXXXXXXXXX.>>22@@1O.;..XXXXXXXXX",
"**********.2>2.@$@1....+X+******",
"&&&&&&&&&.22..54@$@>.22.X*&&&&&&",
"&&&&&&&&&.$$.54O4@@..$$.X*&&&&&&",
"&&&&&&&&&.:.54144.>.:::.X*&&&&&&",
"&&&&&&&&&..54144.##.$#:.X+&&&&&&",
"XXXXXXXXX..5445.,,:..$$.XXXXXXXX",
"*****+X+**.555.::::.*..*********",
"&&&&&&X*&&....$$.$$.&&&&&&&&&&&&",
"&&&&&&X*&&&&&.::..#.&&&&&&&&&&&&",
"&&&&&&X*&&&&&&&&&.:.&&&&&&&&&&&&",
"&&&&&+X+&&&&&&&&&&&&&&&&&&&&&&&&",
"XXXXXXXXXXXXXXXXXXXXXXXXXXXXXXXX",
"***************+X+**************",
"%%%%%%%%%%%%%%%%X*%%%%%%%%%%%%%%"
};
