/* XPM */
static char *result[] = {
/* columns rows colors chars-per-pixel */
"32 32 23 1 ",
"  c gray4",
". c #1A070F",
"X c #191919",
"o c gray15",
"O c gray20",
"+ c #53272E",
"@ c #562C3A",
"# c #733B41",
"$ c #434343",
"% c gray32",
"& c #6D6D6D",
"* c #841F19",
"= c #C04101",
"- c #884949",
"; c #9B534A",
": c #846A58",
"> c #B66E62",
", c #656E87",
"< c #AF9582",
"1 c #E7B19E",
"2 c #AFB5CE",
"3 c #F9DCC5",
"4 c #F4F5FE",
/* pixels */
"$$$$$$$$$$$$$$$$X&$$$$$$$$$$$$$$",
"$$$$$$$$$$$$$$$$X&$$$$$$$$$$$$$$",
"$$$$$$$$$$$$$$$$ &$$$$$$$$$$$$$$",
"$$$$$$$$$$$$$$$OXO$$$$$$$$$$$$$$",
"X    X XXXXXXXXXXXXXXXXXXXXX    ",
"&&&&&&&&&&&&&.......&&&OXO&&&&&&",
"%%%%%%%%%%%%.*==*==*.%%%X&%%%%%%",
"%%%%%%%%%%%.*=======*.%%o&%%%%%%",
"%%%%%%%%%%%.*=*****=*.%%X&%%%%%%",
"%%%%%%%%%%%.***>>>***.%OoO%%%%%%",
"XXXXXXXXXXX.*>11111>*.XXoXXXXXXX",
"&&&&&O..&&.1*===1===*1.&&&&&&&&&",
"$$$$$$.2.$.1*4.>3>.4*1.$$$$$$$$$",
"$$$$$$ .+...>11>3>11>.$$$$$$$$$$",
"$$$$$$X&.+-.>1111111>.$$$$$$$$$$",
"$$$$$$X&.--..>1>>>1>.$$$$$$$$$$$",
"$$$$$OXO.-..:.>111>.:.$$$$$$$$$$",
"XXXXXXXX...::<.....<::.XXXXXXXXX",
"&&&&&&&&&&.<<<<1>1<<<<.OXO&&&&&&",
"%%%%%%%%%.<<.:<<<<<:.<<.X&%%%%%%",
"%%%%%%%%%.,#..:<<<:..#,.X&%%%%%%",
"%%%%%%%%%.;;;.:<:<:.;;;.X&%%%%%%",
"%%%%%%%%%.;@#.@,2,@.#@;.XO%%%%%%",
"XXXXXXXXX.##..;;#;;..##.XXXXXXXX",
"&&&&&OXO&&..&.;;;;;.&..&&&&&&&&&",
"%%%%%%X&%%%%%.;#.##.%%%%%%%%%%%%",
"%%%%%%X&%%%%%.#.%.;.%%%%%%%%%%%%",
"%%%%%%X&%%%%%.;.%%%%%%%%%%%%%%%%",
"%%%%%OXO%%%%%%%%%%%%%%%%%%%%%%%%",
"XXXXXXXXXXXXXXXXXXXXXXXXXXXXXXXX",
"&&&&&&&&&&&&&&&OXO&&&&&&&&&&&&&&",
"$$$$$$$$$$$$$$$$X&$$$$$$$$$$$$$$"
};
