/* XPM */
static char *result[] = {
/* columns rows colors chars-per-pixel */
"32 32 25 1 ",
"  c gray4",
". c #1A070F",
"X c #191919",
"o c gray15",
"O c #292F37",
"+ c gray20",
"@ c #53272E",
"# c #562C3A",
"$ c #733B41",
"% c #434343",
"& c gray32",
"* c #6D6D6D",
"= c #841F19",
"- c #C04101",
"; c #884949",
": c #9B534A",
"> c #846A58",
", c #B66E62",
"< c #656E87",
"1 c #AF9582",
"2 c #E7B19E",
"3 c #CEB5A2",
"4 c #AFB5CE",
"5 c #F9DCC5",
"6 c #F4F5FE",
/* pixels */
"%%%%%%%%%%%%%%%%X*%%%%%%%%%%%%%%",
"%%%%%%%%%%%%%%%%X*%%%%%%%%%%%%%%",
"%%%%%%%%%%%%%%%% *%%%%%%%%%%%%%%",
"%%%%%%%%%%%%%%%+X+%%%%%%%%%%%%%%",
"X    X XXXXX.......XXXXXXXXX    ",
"***********.-=----=.***+X+******",
"&&&&&&&&&&.-------==.&&&X*&&&&&&",
"&&&&&&&&&.--====-===.&&&o*&&&&&&",
"&&&&&&&&&.==,,,,====.&&&X*&&&&&&",
"&&&&&&&&&..2222222==.&&+o..&&&&&",
"XXXXXXXXXX.--2---2,=2.XX.4.XXXXX",
"*****+X+**..,5.622,=2...@.******",
"%%%%%%X*%%.2,52222,,.;@@.%%%%%%%",
"%%%%%% *%%.2222222,...;@.%%%%%%%",
"%%%%%%X*%%%.,,,222,..O.@.%%%%%%%",
"%%%%%%X*%%%.22222,.1>....%%%%%%%",
"%%%%%+X+%%%%......113>.%%%%%%%%%",
"XXXXXXXXXXXX.>2,21111>.XXXXXXXXX",
"************.>1111...:1.X+******",
"&&&&&&&&&&&.$.>11.$#:<:.X*&&&&&&",
"&&&&&&&&&&&.:#.>1.$::$:.X*&&&&&&",
"&&&&&&&&&&&.::.<4.$::..&X*&&&&&&",
"&&&&&&&&&&&&...:::...&&+X+&&&&&&",
"XXXXXXXXXXXXXX.::::.XXXXXXXXXXXX",
"*****+X+*******.:.$.************",
"&&&&&&X*&&&&&&.$$.$.&&&&&&&&&&&&",
"&&&&&&X*&&&&&.##<..#.&&&&&&&&&&&",
"&&&&&&X*&&&&&.:::.&&&&&&&&&&&&&&",
"&&&&&+X+&&&&&&&&&&&&&&&&&&&&&&&&",
"XXXXXXXXXXXXXXXXXXXXXXXXXXXXXXXX",
"***************+X+**************",
"%%%%%%%%%%%%%%%%X*%%%%%%%%%%%%%%"
};
